#define icon_battery_width 12
#define icon_battery_height 19
static char icon_battery_bits[] = {
0xff,0x0f,0xff,0x0f,0x03,0x0c,0x03,0x0c,0x03,0x0c,0x03,0x0c,0x03,0x0c,0x03,0x0c,0x03,0x0c,0x03,0x0c,0x03,0x0c,0x03,0x0c,0x03,0x0c,0x03,0x0c,0x03,0x0c,0x03,0x0c,0x03,0x0c,0xff,0x0f,0xff,0x0f
};
