#define icon_battery_frame_width 12
#define icon_battery_frame_height 21
static char icon_battery_frame_bits[] = {
  0x01, 0x08, 0xFC, 0x03, 0xFE, 0x07, 0xFE, 0x07, 0xFE, 0x07, 0xFE, 0x07, 
  0xFE, 0x07, 0xFE, 0x07, 0xFE, 0x07, 0xFE, 0x07, 0xFE, 0x07, 0xFE, 0x07, 
  0xFE, 0x07, 0xFE, 0x07, 0xFE, 0x07, 0xFE, 0x07, 0xFE, 0x07, 0xFC, 0x03, 
  0x01, 0x08, 0x07, 0x0E, 0x07, 0x0E, };
