#define kph_width 8
#define kph_height 16
static char kph_bits[] = {
  0x7F, 0x10, 0x28, 0x44, 0x70, 0x10, 0x20, 0x10, 0x70, 0x00, 0xF0, 0x0F, 
  0x00, 0x7F, 0x10, 0x70, };
