#define logo_syklo_width 16
#define logo_syklo_height 45
static char logo_syklo_bits[] = {
0x8f,0xf9,0x07,0xf1,0x27,0xf3,0x27,0xf2,0x67,0xf2,0x47,0xf0,0xcf,0xf8,0xff,0xff,0xe7,0xff,0x87,0xff,0x1f,0x1e,0x7f,0x00,0xff,0xe0,0x3f,0xf8,0x07,0xfe,0xc7,0xff,0xff,0xff,0x00,0xf0,0x00,0xf0,0x07,0xff,0x27,0xfe,0x67,0xfc,0xe7,0xf8,0xe7,0xf1,0xe7,0xf3,0xff,0xff,0x00,0xf0,0x00,0xf0,0xff,0xff,0x1f,0xfc,0x0f,0xf8,0xc7,0xf1,0xe7,0xf3,0xe7,0xf3,0xe7,0xf3,0xe7,0xf3,0xe7,0xf3,0xe7,0xf3,0xe7,0xf3,0xe7,0xf3,0xe7,0xf3,0xe7,0xf3,0xc7,0xf1,0x0f,0xf8,0x1f,0xfc
};
