#define offroad_icon_width 9
#define offroad_icon_height 8
static char offroad_icon_bits[] = {
  0x87, 0x01, 0x7B, 0x01, 0xF5, 0x00, 0xED, 0x00, 0xDD, 0x00, 0xBD, 0x00, 
  0x7B, 0x01, 0x87, 0x01, };
