#define speed_background_width 36
#define speed_background_height 60
static char speed_background_bits[] = {
0x07,0x00,0x00,0x00,0x0e,0x01,0x00,0x00,0x00,0x08,0x00,0x00,0x06,0x00,0x00,0x00,0x00,0x06,0x00,0x00,0x00,0x00,0x06,0x00,0x00,0x00,0x00,0x06,0x00,0x00,0x00,0x00,0x06,0x00,0x00,0x00,0x00,0x06,0x00,0x00,0x00,0x00,0x06,0x00,0x00,0x00,0x00,0x06,0x00,0x00,0x00,0x00,0x00,0x00,0x00,0x00,0x00,0x00,0x00,0x00,0xf8,0xff,0xff,0xff,0x01,0x0c,0x00,0x00,0x00,0x03,0x04,0x00,0x00,0x00,0x02,0x04,0x00,0x00,0x00,0x02,0x04,0x00,0x00,0x00,0x02,0x04,0x00,0x00,0x00,0x02,0x04,0x00,0x00,0x00,0x02,0x04,0x00,0x00,0x00,0x02,0x04,0x00,0x00,0x00,0x02,0x04,0x00,0x00,0x00,0x02,0x04,0x00,0x00,0x00,0x02,0x04,0x00,0x00,0x00,0x02,0x04,0x00,0x00,0x00,0x02,0x04,0x00,0x00,0x00,0x02,0x04,0x00,0x00,0x00,0x02,0x04,0x00,0x00,0x00,0x02,0x04,0x00,0x00,0x00,0x02,0x04,0x00,0x00,0x00,0x02,0x04,0x00,0x00,0x00,0x02,0x04,0x00,0x00,0x00,0x02,0x04,0x00,0x00,0x00,0x02,0x04,0x00,0x00,0x00,0x02,0x04,0x00,0x00,0x00,0x02,0x04,0x00,0x00,0x00,0x02,0x04,0x00,0x00,0x00,0x02,0x04,0x00,0x00,0x00,0x02,0x04,0x00,0x00,0x00,0x02,0x04,0x00,0x00,0x00,0x02,0x04,0x00,0x00,0x00,0x02,0x04,0x00,0x00,0x00,0x02,0x04,0x00,0x00,0x00,0x02,0x06,0x00,0x00,0x00,0x0a,0x07,0x00,0x00,0x00,0x0e,0x05,0x00,0x00,0x00,0x06,0x04,0x00,0x00,0x00,0x02,0x04,0x00,0x00,0x00,0x02,0x06,0x00,0x00,0x00,0x0a,0x07,0x00,0x00,0x00,0x0e,0x05,0x00,0x00,0x00,0x06,0x04,0x00,0x00,0x00,0x02,0x04,0x00,0x00,0x00,0x02,0x06,0x00,0x00,0x00,0x0a,0x07,0x00,0x00,0x00,0x0e,0x05,0x00,0x00,0x00,0x06,0x04,0x00,0x00,0x00,0x02,0x04,0x00,0x00,0x00,0x02,0x06,0x00,0x00,0x00,0x0a,0x07,0x00,0x00,0x00,0x0e
};
