#define walk_icon_width 9
#define walk_icon_height 7
static char walk_icon_bits[] = {
  0xCF, 0x00, 0x77, 0x01, 0x84, 0x01, 0xA4, 0x01, 0x37, 0x00, 0xEF, 0x00, 
  0xEF, 0x01, };
